<?xml version="1.0" encoding="UTF-8" standalone="no"?><!-- Generator: Gravit.io --><svg xmlns="http://www.w3.org/2000/svg" xmlns:xlink="http://www.w3.org/1999/xlink" style="isolation:isolate" viewBox="0 0 800 400" width="800pt" height="400pt"><defs><clipPath id="_clipPath_FPwsGFYOilLT7HIaQMm7uigZK9hewQlQ"><rect width="800" height="400"/></clipPath></defs><g clip-path="url(#_clipPath_FPwsGFYOilLT7HIaQMm7uigZK9hewQlQ)"><g style="isolation:isolate"/><g><path d=" M 623.97 224.976 C 622.916 227.357 623.992 230.14 626.372 231.194 C 628.753 232.247 631.537 231.172 632.59 228.791 C 633.644 226.409 632.906 216.461 632.906 216.461 C 632.906 216.461 625.023 222.594 623.97 224.976 Z  M 640.958 224.976 C 639.904 227.357 640.98 230.14 643.361 231.194 C 645.741 232.247 648.525 231.172 649.578 228.791 C 650.632 226.409 649.895 216.461 649.895 216.461 C 649.895 216.461 642.012 222.594 640.958 224.976 Z  M 657.967 224.976 C 656.914 227.357 657.99 230.14 660.37 231.194 C 662.751 232.247 665.534 231.172 666.588 228.791 C 667.642 226.409 666.904 216.461 666.904 216.461 C 666.904 216.461 659.021 222.594 657.967 224.976 Z  M 685.958 228.791 C 687.012 226.409 686.274 216.461 686.274 216.461 C 686.274 216.461 678.412 222.594 677.358 224.976 C 676.304 227.358 677.379 230.14 679.761 231.194 C 682.101 232.248 684.904 231.173 685.958 228.791 L 685.958 228.791 Z  M 628.396 244.726 C 627.342 247.106 628.418 249.89 630.799 250.943 C 633.179 251.997 635.963 250.921 637.016 248.541 C 638.07 246.159 637.333 236.21 637.333 236.21 C 637.333 236.21 629.45 242.344 628.396 244.726 Z  M 645.384 244.726 C 644.331 247.106 645.406 249.89 647.787 250.943 C 650.167 251.997 652.951 250.921 654.005 248.541 C 655.059 246.159 654.321 236.21 654.321 236.21 C 654.321 236.21 646.438 242.344 645.384 244.726 L 645.384 244.726 Z  M 662.393 244.726 C 661.34 247.106 662.416 249.89 664.796 250.943 C 667.177 251.997 669.961 250.921 671.014 248.541 C 672.068 246.159 671.33 236.21 671.33 236.21 C 671.33 236.21 663.447 242.344 662.393 244.726 Z  M 627.574 211.128 L 692.028 211.17 L 692.239 211.17 C 699.721 211.17 704 206.765 704 201.306 C 704 195.847 699.721 191.442 692.239 191.442 C 691.459 191.442 690.7 191.484 689.963 191.59 L 689.963 191.316 C 689.963 184.276 684.251 178.585 677.232 178.585 C 676.22 178.585 675.23 178.711 674.281 178.943 C 672.342 169.817 663.447 162.904 652.761 162.904 C 640.663 162.904 630.841 171.756 630.841 182.674 C 630.841 184.592 631.136 186.447 631.705 188.196 C 630.794 188.103 629.88 188.054 628.965 188.049 C 619.417 188.049 614 193.234 614 199.62 C 614 205.669 618.679 210.644 627.574 211.128 L 627.574 211.128 Z " fill="rgb(185,185,185)"/><path d=" M 520.145 145.571 L 530.112 145.571 C 531.386 145.571 532.547 146.283 533.128 147.425 C 533.706 148.558 533.598 149.921 532.847 150.948 L 527.058 158.835 L 535.732 158.835 C 537.587 158.835 539.105 160.353 539.105 162.208 C 539.105 163.088 538.768 163.894 538.206 164.493 L 535.789 167.154 L 550.608 167.172 L 550.796 167.172 C 557.447 167.172 561.25 163.257 561.25 158.404 C 561.25 153.571 557.447 149.636 550.796 149.636 C 550.102 149.636 549.428 149.674 548.772 149.767 L 548.772 149.524 C 548.772 143.266 543.695 138.208 537.456 138.208 C 536.557 138.208 535.676 138.32 534.833 138.526 C 533.109 130.414 525.203 124.268 515.704 124.268 C 504.95 124.268 496.22 132.137 496.22 141.842 C 496.22 143.547 496.482 145.196 496.988 146.751 C 496.178 146.668 495.366 146.625 494.552 146.62 C 486.065 146.62 481.25 151.229 481.25 156.905 C 481.25 162.301 485.409 166.723 493.297 167.154 L 503.508 167.154 L 517.353 147.051 C 517.99 146.114 519.039 145.571 520.145 145.571 L 520.145 145.571 Z  M 535.714 162.208 L 520.388 162.208 L 530.112 148.943 L 520.145 148.943 L 505.531 170.151 L 520.65 170.151 L 516.435 177.72 L 507.985 192.84 L 535.714 162.208 Z " fill="rgb(185,185,185)"/><path d=" M 246.128 162.465 C 248.61 160.424 252.092 159.343 256.174 159.343 L 256.334 159.343 C 256.174 158.422 256.094 157.482 256.094 156.561 C 256.094 151.178 258.756 146.335 262.938 143.093 C 260.282 138.703 255.522 136.024 250.391 136.029 C 242.286 136.029 235.722 142.593 235.722 150.698 C 235.722 156.701 239.344 161.884 244.527 164.146 C 244.968 163.525 245.528 162.965 246.128 162.465 L 246.128 162.465 Z  M 248.39 118.058 L 248.39 129.965 C 248.39 131.066 249.29 131.967 250.391 131.967 C 251.491 131.967 252.392 131.066 252.392 129.965 L 252.392 118.058 C 252.392 116.958 251.491 116.057 250.391 116.057 C 249.29 116.057 248.39 116.937 248.39 118.058 Z  M 231.64 150.678 C 231.64 149.577 230.739 148.677 229.638 148.677 L 217.751 148.677 C 216.651 148.677 215.75 149.577 215.75 150.678 C 215.75 151.778 216.651 152.679 217.751 152.679 L 229.658 152.679 C 230.759 152.679 231.64 151.778 231.64 150.678 Z  M 263.619 137.43 C 264.019 137.83 264.519 138.01 265.04 138.01 C 265.56 138.01 266.06 137.81 266.46 137.43 L 274.865 129.025 C 275.645 128.246 275.645 126.982 274.865 126.203 C 274.086 125.424 272.823 125.424 272.044 126.203 L 263.639 134.608 C 262.838 135.389 262.838 136.649 263.619 137.43 Z  M 227.297 175.753 C 227.817 175.753 228.318 175.553 228.718 175.172 L 237.123 166.767 C 237.902 165.988 237.902 164.725 237.123 163.946 C 236.344 163.167 235.08 163.167 234.301 163.946 L 225.896 172.351 C 225.328 172.92 225.157 173.775 225.463 174.519 C 225.769 175.262 226.493 175.749 227.297 175.753 Z  M 228.718 126.183 C 228.214 125.679 227.479 125.482 226.791 125.667 C 226.102 125.851 225.564 126.389 225.38 127.077 C 225.195 127.766 225.392 128.501 225.896 129.005 L 234.301 137.41 C 234.701 137.81 235.202 137.99 235.722 137.99 C 236.242 137.99 236.743 137.79 237.143 137.41 C 237.518 137.036 237.728 136.528 237.728 135.999 C 237.728 135.47 237.518 134.962 237.143 134.588 L 228.718 126.183 Z  M 315.75 171.75 C 315.75 167.828 312.608 165.307 307.765 165.307 C 307.225 165.307 306.665 165.347 306.104 165.407 L 304.263 165.627 L 304.303 163.666 L 304.303 163.565 C 304.299 160.878 303.066 158.34 300.956 156.675 C 298.847 155.01 296.092 154.4 293.477 155.02 L 291.876 155.401 L 291.535 153.8 C 290.095 146.956 283.371 141.993 275.546 141.993 C 266.58 141.993 259.276 148.496 259.276 156.521 C 259.276 157.882 259.496 159.243 259.916 160.544 L 260.677 162.885 L 258.235 162.625 C 257.555 162.545 256.855 162.525 256.174 162.525 C 249.83 162.525 245.568 165.667 245.568 170.35 C 245.568 174.832 249.21 177.814 255.074 178.154 L 305.984 178.194 L 305.984 178.174 L 307.765 178.194 C 312.608 178.194 315.75 175.673 315.75 171.75 L 315.75 171.75 Z " fill="rgb(185,185,185)"/><path d=" M 398.489 65.645 C 410.346 65.645 419.958 75.257 419.958 87.114 C 419.958 98.971 410.346 108.583 398.489 108.583 C 386.632 108.583 377.02 98.971 377.02 87.114 C 377.02 75.257 386.632 65.645 398.489 65.645 L 398.489 65.645 Z  M 398.489 59.071 C 399.736 59.071 400.756 58.051 400.756 56.804 L 400.756 39.393 C 400.756 38.146 399.736 37.126 398.489 37.126 C 397.242 37.126 396.222 38.146 396.222 39.393 L 396.222 56.804 C 396.222 58.051 397.242 59.071 398.489 59.071 L 398.489 59.071 Z  M 400.756 134.859 L 400.756 117.448 C 400.756 116.201 399.736 115.18 398.489 115.18 C 397.242 115.18 396.222 116.201 396.222 117.448 L 396.222 134.859 C 396.222 136.105 397.242 137.126 398.489 137.126 C 399.736 137.126 400.756 136.105 400.756 134.859 Z  M 426.555 87.114 C 426.555 88.361 427.575 89.381 428.822 89.381 L 446.233 89.381 C 447.48 89.381 448.5 88.361 448.5 87.114 C 448.5 85.867 447.48 84.847 446.233 84.847 L 428.822 84.847 C 427.575 84.847 426.555 85.867 426.555 87.114 Z  M 350.767 89.381 L 368.178 89.381 C 369.425 89.381 370.445 88.361 370.445 87.114 C 370.445 85.867 369.425 84.847 368.178 84.847 L 350.767 84.847 C 349.52 84.847 348.5 85.867 348.5 87.114 C 348.5 88.361 349.52 89.381 350.767 89.381 L 350.767 89.381 Z  M 419.935 67.935 C 420.524 67.935 421.091 67.708 421.545 67.277 L 433.855 54.967 C 434.737 54.085 434.737 52.654 433.855 51.771 C 432.972 50.888 431.541 50.888 430.658 51.771 L 418.348 64.081 C 417.924 64.505 417.685 65.08 417.685 65.679 C 417.685 66.279 417.924 66.854 418.348 67.277 C 418.779 67.731 419.368 67.935 419.935 67.935 Z  M 375.455 106.974 L 363.145 119.284 C 362.498 119.931 362.306 120.905 362.659 121.75 C 363.012 122.595 363.839 123.143 364.755 123.138 C 365.344 123.138 365.911 122.911 366.364 122.48 L 378.675 110.17 C 379.099 109.747 379.338 109.172 379.338 108.572 C 379.338 107.972 379.099 107.397 378.675 106.974 C 377.768 106.09 376.339 106.09 375.455 106.974 Z  M 432.245 123.138 C 432.835 123.138 433.401 122.911 433.855 122.48 C 434.279 122.057 434.518 121.482 434.518 120.882 C 434.518 120.282 434.279 119.707 433.855 119.284 L 421.545 106.974 C 420.974 106.403 420.141 106.18 419.361 106.389 C 418.581 106.598 417.972 107.207 417.763 107.987 C 417.554 108.767 417.777 109.599 418.348 110.17 L 430.658 122.48 C 431.089 122.911 431.678 123.138 432.245 123.138 Z  M 375.455 67.277 C 375.909 67.731 376.476 67.935 377.065 67.935 C 377.654 67.935 378.221 67.708 378.675 67.277 C 379.099 66.854 379.338 66.279 379.338 65.679 C 379.338 65.08 379.099 64.505 378.675 64.081 L 366.364 51.771 C 365.793 51.2 364.961 50.977 364.181 51.186 C 363.401 51.395 362.792 52.004 362.583 52.784 C 362.374 53.564 362.597 54.396 363.168 54.967 L 375.455 67.277 L 375.455 67.277 Z " fill="rgb(185,185,185)"/><path d=" M 135.378 194.553 C 142.753 193.809 149.38 199.07 150.329 206.422 L 150.677 206.422 C 154.687 206.422 158.048 207.72 160.32 209.899 C 169.638 207.72 177.102 200.766 180 191.772 C 175.398 196.073 169.331 198.46 163.032 198.448 C 149.309 198.448 138.183 187.321 138.183 173.598 C 138.183 167.942 140.06 162.727 143.236 158.554 C 133.662 162.75 126.963 172.323 126.963 183.45 L 126.963 183.728 C 130.95 186.301 133.964 190.079 135.378 194.553 L 135.378 194.553 Z  M 80 215.833 C 80 220.909 84.126 224.294 90.756 224.665 L 148.591 224.711 L 148.591 224.688 L 150.654 224.711 C 156.147 224.711 159.694 221.86 159.694 217.432 C 159.694 213.005 156.147 210.154 150.654 210.154 C 150.028 210.154 149.402 210.2 148.776 210.27 L 146.643 210.525 L 146.69 208.253 L 146.69 208.16 C 146.69 202.666 142.216 198.216 136.745 198.216 C 135.981 198.216 135.192 198.308 134.427 198.494 L 132.573 198.934 L 132.179 197.08 C 130.533 189.314 122.907 183.682 114.052 183.682 C 103.876 183.682 95.6 191.076 95.6 200.163 C 95.6 201.716 95.832 203.246 96.319 204.729 L 97.2 207.442 L 94.372 207.14 C 93.607 207.047 92.819 207.024 92.031 207.024 C 84.822 206.955 80 210.525 80 215.833 L 80 215.833 Z  M 99.889 239.523 C 100.306 239.222 100.723 238.92 101.164 238.665 C 101.604 238.387 102.137 238.132 102.439 237.692 C 103.117 236.647 102.827 235.251 101.79 234.563 C 100.745 233.884 99.349 234.174 98.66 235.212 C 98.382 235.652 98.312 236.139 98.289 236.649 C 98.243 237.646 97.988 238.642 97.71 239.616 C 97.432 240.636 97.084 241.656 96.551 242.583 C 96.551 242.583 96.898 242.166 97.084 241.98 C 97.929 241.064 98.87 240.241 99.889 239.523 Z  M 90.779 251.461 C 91.824 252.139 93.219 251.85 93.908 250.812 C 94.21 250.372 94.233 249.792 94.279 249.259 C 94.349 248.749 94.441 248.239 94.557 247.729 C 94.812 246.524 95.137 245.295 95.647 244.159 C 95.763 243.927 95.994 243.441 95.994 243.441 C 95.369 244.298 94.58 245.017 93.746 245.689 C 92.958 246.315 92.146 246.941 91.266 247.404 C 90.802 247.636 90.385 247.891 90.107 248.332 C 89.437 249.383 89.737 250.777 90.779 251.461 L 90.779 251.461 Z  M 91.335 238.735 C 91.776 238.99 92.216 239.291 92.633 239.593 C 93.653 240.311 94.627 241.076 95.484 242.003 C 95.67 242.189 96.018 242.606 96.018 242.606 C 95.484 241.702 95.114 240.682 94.835 239.662 C 94.557 238.712 94.302 237.692 94.233 236.695 C 94.186 236.185 94.117 235.698 93.839 235.258 C 93.143 234.215 91.729 233.937 90.709 234.632 C 89.689 235.327 89.388 236.741 90.083 237.761 C 90.338 238.225 90.872 238.457 91.335 238.735 L 91.335 238.735 Z  M 101.349 247.335 C 100.445 246.894 99.634 246.269 98.846 245.643 C 98.011 244.994 97.223 244.275 96.574 243.417 C 96.574 243.417 96.806 243.904 96.922 244.136 C 97.455 245.249 97.803 246.477 98.081 247.683 C 98.197 248.193 98.312 248.703 98.382 249.212 C 98.452 249.722 98.498 250.325 98.776 250.766 C 99.471 251.809 100.885 252.087 101.905 251.391 C 102.925 250.696 103.227 249.282 102.531 248.262 C 102.23 247.798 101.79 247.567 101.349 247.335 L 101.349 247.335 Z  M 106.356 242.745 C 106.333 241.493 105.29 240.52 104.038 240.543 C 103.505 240.566 103.018 240.868 102.531 241.099 C 102.068 241.331 101.604 241.54 101.117 241.748 C 99.981 242.235 98.776 242.652 97.571 242.861 L 96.783 243 C 97.849 243.023 98.892 243.278 99.912 243.556 C 100.862 243.835 101.859 244.159 102.74 244.623 C 103.18 244.855 103.644 245.063 104.154 245.063 C 105.406 245.04 106.402 243.997 106.356 242.745 L 106.356 242.745 Z  M 86.212 243.278 C 86.236 244.53 87.279 245.504 88.53 245.48 C 89.04 245.457 89.481 245.249 89.921 244.97 C 90.779 244.461 91.752 244.09 92.68 243.765 C 93.676 243.417 94.72 243.116 95.763 243.047 C 95.763 243.047 95.229 243 94.975 242.954 C 93.746 242.792 92.541 242.444 91.358 242.027 C 90.872 241.841 90.385 241.679 89.921 241.47 C 89.434 241.262 88.924 240.96 88.391 240.983 C 87.795 240.989 87.226 241.237 86.816 241.669 C 86.405 242.102 86.187 242.682 86.212 243.278 L 86.212 243.278 Z  M 126.43 249.236 C 126.847 248.934 127.265 248.633 127.705 248.378 C 128.146 248.1 128.679 247.845 128.98 247.404 C 129.658 246.36 129.369 244.964 128.331 244.275 C 127.286 243.597 125.891 243.887 125.202 244.924 C 124.924 245.365 124.854 245.851 124.831 246.361 C 124.784 247.358 124.529 248.355 124.251 249.328 C 123.973 250.348 123.625 251.368 123.092 252.295 C 123.092 252.295 123.44 251.878 123.625 251.693 C 124.437 250.766 125.41 249.977 126.43 249.236 Z  M 117.32 261.174 C 118.365 261.852 119.761 261.562 120.45 260.525 C 120.751 260.084 120.774 259.505 120.821 258.971 C 120.89 258.461 120.983 257.951 121.099 257.442 C 121.354 256.236 121.678 255.008 122.188 253.872 C 122.304 253.64 122.536 253.153 122.536 253.153 C 121.91 254.011 121.122 254.729 120.287 255.402 C 119.499 256.028 118.688 256.653 117.807 257.117 C 117.344 257.349 116.926 257.604 116.648 258.044 C 115.976 259.095 116.276 260.491 117.32 261.174 L 117.32 261.174 Z  M 117.854 248.448 C 118.294 248.703 118.734 249.004 119.152 249.305 C 120.172 250.024 121.145 250.789 122.003 251.716 C 122.188 251.901 122.536 252.319 122.536 252.319 C 122.003 251.415 121.632 250.395 121.354 249.375 C 121.076 248.424 120.821 247.404 120.751 246.408 C 120.705 245.898 120.635 245.411 120.357 244.97 C 119.662 243.927 118.248 243.649 117.228 244.345 C 116.185 245.04 115.906 246.454 116.602 247.474 C 116.88 247.938 117.413 248.193 117.854 248.448 L 117.854 248.448 Z  M 127.867 257.047 C 126.963 256.607 126.152 255.981 125.364 255.355 C 124.529 254.706 123.741 253.988 123.092 253.13 C 123.092 253.13 123.324 253.617 123.44 253.849 C 123.973 254.961 124.321 256.19 124.599 257.395 C 124.715 257.905 124.831 258.415 124.9 258.925 C 124.97 259.435 125.016 260.038 125.294 260.478 C 125.99 261.521 127.404 261.799 128.424 261.104 C 129.444 260.409 129.745 258.995 129.05 257.975 C 128.748 257.534 128.331 257.279 127.867 257.047 L 127.867 257.047 Z  M 132.898 252.458 C 132.874 251.206 131.831 250.232 130.58 250.256 C 130.046 250.279 129.56 250.58 129.096 250.812 C 128.632 251.044 128.169 251.252 127.682 251.461 C 126.547 251.967 125.356 252.34 124.135 252.574 L 123.347 252.713 C 124.414 252.736 125.457 252.991 126.477 253.269 C 127.427 253.547 128.424 253.872 129.305 254.335 C 129.745 254.567 130.209 254.776 130.719 254.776 C 131.947 254.753 132.921 253.709 132.898 252.458 Z  M 112.731 252.991 C 112.754 254.243 113.797 255.216 115.049 255.193 C 115.559 255.17 115.999 254.961 116.439 254.683 C 117.297 254.173 118.271 253.802 119.198 253.478 C 120.195 253.13 121.238 252.829 122.281 252.759 C 122.281 252.759 121.748 252.713 121.493 252.666 C 120.259 252.484 119.047 252.173 117.877 251.739 C 117.39 251.554 116.903 251.391 116.439 251.183 C 115.953 250.974 115.443 250.673 114.91 250.696 C 113.681 250.696 112.707 251.739 112.731 252.991 L 112.731 252.991 Z  M 149.541 241.007 C 149.958 240.705 150.376 240.404 150.816 240.149 C 151.256 239.871 151.79 239.616 152.091 239.175 C 152.769 238.131 152.479 236.735 151.442 236.046 C 150.397 235.368 149.001 235.658 148.312 236.695 C 148.034 237.136 147.965 237.622 147.942 238.132 C 147.895 239.129 147.64 240.126 147.362 241.099 C 147.084 242.119 146.736 243.139 146.203 244.066 C 146.203 244.066 146.551 243.649 146.736 243.464 C 147.571 242.537 148.544 241.748 149.541 241.007 Z  M 140.431 252.945 C 141.476 253.623 142.872 253.333 143.561 252.295 C 143.862 251.855 143.885 251.276 143.931 250.742 C 144.001 250.232 144.094 249.722 144.21 249.212 C 144.465 248.007 144.789 246.779 145.299 245.666 C 145.415 245.434 145.647 244.947 145.647 244.947 C 145.021 245.805 144.233 246.524 143.398 247.196 C 142.61 247.822 141.799 248.448 140.918 248.911 C 140.454 249.143 140.037 249.398 139.759 249.838 C 139.089 250.882 139.39 252.271 140.431 252.945 L 140.431 252.945 Z  M 140.987 240.219 C 141.428 240.474 141.868 240.775 142.286 241.076 C 143.306 241.795 144.279 242.56 145.137 243.487 C 145.322 243.672 145.67 244.09 145.67 244.09 C 145.148 243.165 144.75 242.175 144.488 241.146 C 144.21 240.195 143.955 239.175 143.885 238.179 C 143.839 237.669 143.769 237.182 143.491 236.741 C 142.796 235.698 141.382 235.42 140.362 236.116 C 139.342 236.811 139.04 238.225 139.736 239.245 C 139.991 239.709 140.524 239.964 140.987 240.219 Z  M 151.001 248.818 C 150.097 248.378 149.286 247.752 148.498 247.126 C 147.663 246.477 146.875 245.759 146.226 244.901 C 146.226 244.901 146.458 245.388 146.574 245.62 C 147.107 246.732 147.455 247.961 147.733 249.166 C 147.849 249.676 147.965 250.186 148.034 250.696 C 148.104 251.206 148.15 251.809 148.428 252.249 C 149.124 253.292 150.538 253.57 151.558 252.875 C 152.578 252.18 152.879 250.766 152.184 249.746 C 151.882 249.305 151.442 249.05 151.001 248.818 L 151.001 248.818 Z  M 156.008 244.229 C 155.985 242.977 154.942 242.003 153.69 242.027 C 153.157 242.05 152.67 242.351 152.184 242.583 C 151.72 242.815 151.256 243.023 150.77 243.232 C 149.634 243.719 148.428 244.136 147.223 244.345 L 146.435 244.484 C 147.501 244.507 148.544 244.762 149.564 245.063 C 150.515 245.341 151.511 245.666 152.392 246.13 C 152.833 246.361 153.296 246.57 153.806 246.57 C 155.058 246.524 156.055 245.48 156.008 244.229 Z  M 135.865 244.762 C 135.888 246.014 136.931 246.987 138.183 246.964 C 138.693 246.941 139.133 246.732 139.573 246.454 C 140.431 245.944 141.405 245.573 142.332 245.249 C 143.329 244.901 144.372 244.6 145.415 244.53 C 145.415 244.53 144.882 244.484 144.627 244.437 C 143.398 244.275 142.193 243.927 141.011 243.51 C 140.524 243.325 140.037 243.162 139.573 242.954 C 139.087 242.745 138.577 242.444 138.044 242.467 C 137.447 242.473 136.879 242.72 136.468 243.153 C 136.057 243.585 135.839 244.166 135.865 244.762 L 135.865 244.762 Z " fill="rgb(185,185,185)"/></g><text transform="matrix(1,0,0,1,244.223,307.305)" style="font-family:'Open Sans';font-weight:700;font-size:48px;font-style:italic;fill:#a21212;stroke:none;">Weather App</text></g></svg>